<svg width="24" height="24" viewBox="0 0 24 24" fill="none" xmlns="http://www.w3.org/2000/svg">
<path d="M10.668 19.04L11.352 15.1867C11.496 14.4 11.304 13.5867 10.848 12.9733C10.392 12.36 9.72 12 9 12H2.4V10.56L5.484 2.66667H15.192C15.408 2.66667 15.6 2.88 15.6 3.12V13.5733L10.668 19.04ZM9.6 24L17.292 15.4533C17.748 14.9467 18 14.2667 18 13.56V3.12C18 1.4 16.74 0 15.192 0H5.472C4.62 0 3.84 0.493333 3.408 1.29333L0.204 9.49333C0.0720001 9.82667 0 10.1867 0 10.56V12C0 13.4667 1.08 14.6667 2.4 14.6667H9L7.896 20.8667C7.836 21.16 7.872 21.48 7.992 21.7467C8.268 22.3467 8.616 22.8933 9.048 23.3733L9.6 24ZM21.6 14.6667H24V0H21.6C20.94 0 20.4 0.6 20.4 1.33333V13.3333C20.4 14.0667 20.94 14.6667 21.6 14.6667Z" fill="#434343"/>
</svg>
