<svg width="26" height="26" viewBox="0 0 26 26" fill="none" xmlns="http://www.w3.org/2000/svg">
<path d="M23.1785 13.6087L12.4975 24.022C11.9823 24.5242 11.1472 24.5242 10.6321 24.022L9.38634 22.8075C8.87208 22.3061 8.87109 21.4935 9.38414 20.991L17.849 12.6993L9.38414 4.40772C8.87109 3.90517 8.87208 3.09259 9.38634 2.59122L10.6321 1.37667C11.1472 0.874443 11.9824 0.874443 12.4975 1.37667L23.1784 11.79C23.6936 12.2922 23.6936 13.1064 23.1785 13.6087Z" fill="#4A4A4A"/>
<path d="M16.1785 13.6087L5.49748 24.022C4.98234 24.5242 4.14718 24.5242 3.6321 24.022L2.38634 22.8075C1.87208 22.3061 1.87109 21.4935 2.38414 20.991L10.849 12.6993L2.38414 4.40772C1.87109 3.90517 1.87208 3.09259 2.38634 2.59122L3.6321 1.37667C4.14723 0.874443 4.9824 0.874443 5.49748 1.37667L16.1784 11.79C16.6936 12.2922 16.6936 13.1064 16.1785 13.6087Z" fill="#4A4A4A"/>
</svg>
