<svg width="14" height="14" viewBox="0 0 14 14" fill="none" xmlns="http://www.w3.org/2000/svg">
<path d="M6.2768 10.9112L6.64811 8.77041C6.72628 8.33337 6.62205 7.88152 6.37451 7.54078C6.12697 7.20004 5.76217 7.00004 5.37131 7.00004H1.78845V6.20004L3.46262 1.81486H8.73268C8.84994 1.81486 8.95417 1.93337 8.95417 2.06671V7.87411L6.2768 10.9112ZM5.69702 13.6667L9.87268 8.91856C10.1202 8.63708 10.257 8.2593 10.257 7.86671V2.06671C10.257 1.11115 9.57302 0.333374 8.73268 0.333374H3.45611C2.9936 0.333374 2.57017 0.607448 2.33565 1.05189L0.596339 5.60745C0.524681 5.79263 0.485596 5.99263 0.485596 6.20004V7.00004C0.485596 7.81486 1.07188 8.48152 1.78845 8.48152H5.37131L4.772 11.926C4.73942 12.0889 4.75897 12.2667 4.82411 12.4149C4.97394 12.7482 5.16285 13.0519 5.39737 13.3186L5.69702 13.6667ZM12.2113 8.48152H13.5142V0.333374H12.2113C11.853 0.333374 11.5599 0.666707 11.5599 1.07411V7.74078C11.5599 8.14819 11.853 8.48152 12.2113 8.48152Z" fill="#434343"/>
</svg>
