<svg width="14" height="14" viewBox="0 0 14 14" fill="none" xmlns="http://www.w3.org/2000/svg">
<path d="M7.72297 3.08893L7.35165 5.22967C7.27348 5.66671 7.37771 6.11856 7.62525 6.4593C7.8728 6.80004 8.2376 7.00004 8.62845 7.00004H12.2113V7.80004L10.5371 12.1852H5.26708C5.14982 12.1852 5.0456 12.0667 5.0456 11.9334V6.12597L7.72297 3.08893ZM8.30274 0.333374L4.12708 5.08152C3.87954 5.363 3.74274 5.74078 3.74274 6.13337V11.9334C3.74274 12.8889 4.42674 13.6667 5.26708 13.6667H10.5437C11.0062 13.6667 11.4296 13.3926 11.6641 12.9482L13.4034 8.39263C13.4751 8.20745 13.5142 8.00745 13.5142 7.80004V7.00004C13.5142 6.18523 12.9279 5.51856 12.2113 5.51856H8.62845L9.22777 2.07411C9.26034 1.91115 9.2408 1.73337 9.17565 1.58523C9.02582 1.25189 8.83691 0.948189 8.6024 0.681522L8.30274 0.333374ZM1.78845 5.51856H0.485596V13.6667H1.78845C2.14674 13.6667 2.43988 13.3334 2.43988 12.926V6.2593C2.43988 5.85189 2.14674 5.51856 1.78845 5.51856Z" fill="#434343"/>
</svg>
