<svg width="42" height="40" viewBox="0 0 42 40" fill="none" xmlns="http://www.w3.org/2000/svg">
<path d="M30.0172 25.1572H28.1201L27.4477 24.5397C29.801 21.9325 31.2178 18.5477 31.2178 14.8656C31.2178 6.65523 24.2298 0 15.6089 0C6.98799 0 0 6.65523 0 14.8656C0 23.076 6.98799 29.7313 15.6089 29.7313C19.4751 29.7313 23.0292 28.3819 25.7667 26.1407L26.4151 26.781V28.5878L38.422 40L42 36.5923L30.0172 25.1572ZM15.6089 25.1572C9.6295 25.1572 4.80274 20.5603 4.80274 14.8656C4.80274 9.17096 9.6295 4.57404 15.6089 4.57404C21.5883 4.57404 26.4151 9.17096 26.4151 14.8656C26.4151 20.5603 21.5883 25.1572 15.6089 25.1572Z" fill="#F9BB8F"/>
</svg>
