<svg width="26" height="26" viewBox="0 0 26 26" fill="none" xmlns="http://www.w3.org/2000/svg">
<path d="M2.82151 12.3913L13.5025 1.97798C14.0177 1.47575 14.8528 1.47575 15.3679 1.97798L16.6137 3.19253C17.1279 3.6939 17.1289 4.50648 16.6159 5.00902L8.15097 13.3007L16.6159 21.5923C17.1289 22.0948 17.1279 22.9074 16.6137 23.4088L15.3679 24.6233C14.8528 25.1256 14.0176 25.1256 13.5025 24.6233L2.82156 14.21C2.30643 13.7078 2.30643 12.8936 2.82151 12.3913Z" fill="#4A4A4A"/>
<path d="M9.82151 12.3913L20.5025 1.97798C21.0177 1.47575 21.8528 1.47575 22.3679 1.97798L23.6137 3.19253C24.1279 3.6939 24.1289 4.50648 23.6159 5.00902L15.151 13.3007L23.6159 21.5923C24.1289 22.0948 24.1279 22.9074 23.6137 23.4088L22.3679 24.6233C21.8528 25.1256 21.0176 25.1256 20.5025 24.6233L9.82156 14.21C9.30643 13.7078 9.30643 12.8936 9.82151 12.3913Z" fill="#4A4A4A"/>
</svg>
