<svg width="24" height="24" viewBox="0 0 24 24" fill="none" xmlns="http://www.w3.org/2000/svg">
<path d="M13.332 4.96L12.648 8.81333C12.504 9.6 12.696 10.4133 13.152 11.0267C13.608 11.64 14.28 12 15 12H21.6V13.44L18.516 21.3333H8.808C8.592 21.3333 8.4 21.12 8.4 20.88V10.4267L13.332 4.96ZM14.4 0L6.708 8.54667C6.252 9.05333 6 9.73333 6 10.44V20.88C6 22.6 7.26 24 8.808 24H18.528C19.38 24 20.16 23.5067 20.592 22.7067L23.796 14.5067C23.928 14.1733 24 13.8133 24 13.44V12C24 10.5333 22.92 9.33333 21.6 9.33333H15L16.104 3.13333C16.164 2.84 16.128 2.52 16.008 2.25333C15.732 1.65333 15.384 1.10667 14.952 0.626667L14.4 0ZM2.4 9.33333H0V24H2.4C3.06 24 3.6 23.4 3.6 22.6667V10.6667C3.6 9.93333 3.06 9.33333 2.4 9.33333Z" fill="#434343"/>
</svg>
